<svg xmlns="http://www.w3.org/2000/svg" xmlns:xlink="http://www.w3.org/1999/xlink" preserveAspectRatio="xMidYMid meet" width="1089" height="930" viewBox="0 0 1089 930" style="width:100%;height:100%"><defs><animateMotion repeatCount="indefinite" dur="1.8833333s" begin="0s" xlink:href="#_R_G_L_0_G_D_2_P_0_G_0_T_0" fill="freeze" keyTimes="0;0.0707965;0.1858407;0.2212389;1" path="M293.84 532.18 C293.84,532.18 194.95,529.11 194.95,529.11 C194.95,529.11 194.95,529.11 194.95,529.11 C194.95,529.11 305.64,533.26 305.64,533.26 C305.64,533.26 305.64,533.26 305.64,533.26 " keyPoints="0;0.47;0.47;1;1" keySplines="0.167 0.167 0.833 0.833;0.167 0.167 0.833 0.833;0.167 0.167 0.833 0.833;0 0 0 0" calcMode="spline"/><animateTransform repeatCount="indefinite" dur="1.8833333s" begin="0s" xlink:href="#_R_G_L_0_G_D_2_P_0_G_0_T_0" fill="freeze" attributeName="transform" from="0.7475400000000001 0.7475400000000001" to="0.7475400000000001 0.7475400000000001" type="scale" additive="sum" keyTimes="0;1" values="0.7475400000000001 0.7475400000000001;0.7475400000000001 0.7475400000000001" keySplines="0 0 1 1" calcMode="spline"/><animateTransform repeatCount="indefinite" dur="1.8833333s" begin="0s" xlink:href="#_R_G_L_0_G_D_3_P_0_G_0_T_0" fill="freeze" attributeName="transform" from="0" to="179.454" type="rotate" additive="sum" keyTimes="0;0.0884956;0.1327434;0.1769912;1" values="0;0;91.151;179.454;179.454" keySplines="0.167 0.167 0.833 0.833;0.167 0.167 0.833 0.833;0.167 0.167 0.833 0.833;0 0 0 0" calcMode="spline"/><animateMotion repeatCount="indefinite" dur="1.8833333s" begin="0s" xlink:href="#_R_G_L_0_G_D_4_P_0_G_0_T_0" fill="freeze" keyTimes="0;0.0707965;0.1858407;0.2212389;1" path="M798.7 532.96 C798.7,532.96 899.62,533.01 899.62,533.01 C899.62,533.01 899.62,533.01 899.62,533.01 C899.62,533.01 814.55,537.48 814.55,537.48 C814.55,537.48 814.55,537.48 814.55,537.48 " keyPoints="0;0.54;0.54;1;1" keySplines="0.167 0.167 0.833 0.833;0.167 0.167 0.833 0.833;0.167 0.167 0.833 0.833;0 0 0 0" calcMode="spline"/><animateTransform repeatCount="indefinite" dur="1.8833333s" begin="0s" xlink:href="#_R_G_L_0_G_D_4_P_0_G_0_T_0" fill="freeze" attributeName="transform" from="0.8399599999999999 0.8399599999999999" to="0.8399599999999999 0.8399599999999999" type="scale" additive="sum" keyTimes="0;1" values="0.8399599999999999 0.8399599999999999;0.8399599999999999 0.8399599999999999" keySplines="0 0 1 1" calcMode="spline"/><animate attributeType="XML" attributeName="opacity" dur="2s" from="0" to="1" xlink:href="#time_group"/></defs><g id="_R_G"><g id="_R_G_L_0_G"><path id="_R_G_L_0_G_D_0_P_0" stroke="#000000" stroke-linecap="round" stroke-linejoin="round" fill="none" stroke-width="30" stroke-opacity="1" d=" M78.02 75.72 C78.02,75.72 1017,75.72 1017,75.72 C1017,75.72 1017,200.13 1017,200.13 C1017,200.13 1017,855.67 1017,855.67 C1017,855.67 78.02,855.67 78.02,855.67 C78.02,855.67 78.02,75.72 78.02,75.72z "/><path id="_R_G_L_0_G_D_1_P_0" stroke="#000000" stroke-linecap="round" stroke-linejoin="round" fill="none" stroke-width="30" stroke-opacity="1" d=" M75 199.03 C75,199.03 1013.97,199.41 1013.97,199.41 "/><g id="_R_G_L_0_G_D_2_P_0_G_0_T_0"><path id="_R_G_L_0_G_D_2_P_0" stroke="#000000" stroke-linecap="round" stroke-linejoin="round" fill="none" stroke-width="30" stroke-opacity="1" d=" M64.04 -140.86 C64.04,-140.86 -64.04,-4.33 -64.04,-4.33 C-64.04,-4.33 63.83,140.86 63.83,140.86 "/></g><g id="_R_G_L_0_G_D_3_P_0_G_0_T_0" transform=" translate(545.644, 532.663)"><path id="_R_G_L_0_G_D_3_P_0" stroke="#000000" stroke-linecap="round" stroke-linejoin="round" fill="none" stroke-width="30" stroke-opacity="1" d=" M66.82 -208.64 C66.82,-208.64 -66.82,208.64 -66.82,208.64 "/></g><g id="_R_G_L_0_G_D_4_P_0_G_0_T_0"><path id="_R_G_L_0_G_D_4_P_0" stroke="#000000" stroke-linecap="round" stroke-linejoin="round" fill="none" stroke-width="30" stroke-opacity="1" d=" M-67.91 -140.86 C-67.91,-140.86 67.91,0.48 67.91,0.48 C67.91,0.48 -67.91,140.86 -67.91,140.86 "/></g><path id="_R_G_L_0_G_D_5_P_0" stroke="#000000" stroke-linecap="round" stroke-linejoin="round" fill="none" stroke-width="30" stroke-opacity="1" d=" M244.22 138.46 C244.22,142.18 241.21,145.19 237.49,145.19 C233.77,145.19 230.76,142.18 230.76,138.46 C230.76,134.74 233.77,131.73 237.49,131.73 C241.21,131.73 244.22,134.74 244.22,138.46z "/><path id="_R_G_L_0_G_D_6_P_0" stroke="#000000" stroke-linecap="round" stroke-linejoin="round" fill="none" stroke-width="30" stroke-opacity="1" d=" M190.38 138.46 C190.38,142.18 187.36,145.19 183.65,145.19 C179.93,145.19 176.92,142.18 176.92,138.46 C176.92,134.74 179.93,131.73 183.65,131.73 C187.36,131.73 190.38,134.74 190.38,138.46z "/><path id="_R_G_L_0_G_D_7_P_0" stroke="#000000" stroke-linecap="round" stroke-linejoin="round" fill="none" stroke-width="30" stroke-opacity="1" d=" M138.46 138.46 C138.46,142.18 135.45,145.19 131.73,145.19 C128.01,145.19 125,142.18 125,138.46 C125,134.74 128.01,131.73 131.73,131.73 C135.45,131.73 138.46,134.74 138.46,138.46z "/></g></g><g id="time_group"/></svg>