<svg xmlns="http://www.w3.org/2000/svg" xmlns:xlink="http://www.w3.org/1999/xlink" preserveAspectRatio="xMidYMid meet" width="2000" height="2000" viewBox="0 0 2000 2000" style="width:100%;height:100%"><defs><animate attributeType="XML" attributeName="opacity" dur="0s" from="0" to="1" xlink:href="#time_group"/></defs><g id="_R_G"><g id="_R_G_L_0_G" transform=" translate(1000, 1000) scale(1.86605, 1.84484) translate(-540, -540)"><path id="_R_G_L_0_G_D_0_P_0" stroke="#ffffff" stroke-linecap="round" stroke-linejoin="round" fill="none" stroke-width="30" stroke-opacity="1" d=" M1038.81 541.91 C1038.81,818.55 814.55,1042.81 537.91,1042.81 C261.26,1042.81 37,818.55 37,541.91 C37,265.26 261.26,41 537.91,41 C814.55,41 1038.81,265.26 1038.81,541.91z "/><path id="_R_G_L_0_G_D_1_P_0" stroke="#ffffff" stroke-linecap="round" stroke-linejoin="round" fill="none" stroke-width="30" stroke-opacity="1" d=" M537.91 41 C537.91,41 537.91,1042.81 537.91,1042.81 "/><path id="_R_G_L_0_G_D_2_P_0" stroke="#fffbfb" stroke-linecap="round" stroke-linejoin="round" fill="none" stroke-width="30" stroke-opacity="1" d=" M517 42 C408.79,145.35 259,344 262.21,556.38 C266.1,813.33 393.11,962.89 527.57,1034.55 "/><path id="_R_G_L_0_G_D_3_P_0" stroke="#ffffff" stroke-linecap="round" stroke-linejoin="round" fill="none" stroke-width="30" stroke-opacity="1" d=" M554 1035 C650.09,975.27 791,735 790.5,512.11 C789.91,243.41 631.94,92.35 556.51,42.38 "/><path id="_R_G_L_0_G_D_4_P_0" stroke="#ffffff" stroke-linecap="round" stroke-linejoin="round" fill="none" stroke-width="30" stroke-opacity="1" d=" M193.82 177.89 C193.82,177.89 862.07,177.89 862.07,177.89 "/><path id="_R_G_L_0_G_D_5_P_0" stroke="#ffffff" stroke-linecap="round" stroke-linejoin="round" fill="none" stroke-width="30" stroke-opacity="1" d=" M1020.58 407.55 C1020.58,407.55 55.23,407.55 55.23,407.55 "/><path id="_R_G_L_0_G_D_6_P_0" stroke="#ffffff" stroke-linecap="round" stroke-linejoin="round" fill="none" stroke-width="30" stroke-opacity="1" d=" M48.7 649.99 C48.7,649.99 1027.12,649.99 1027.12,649.99 "/><path id="_R_G_L_0_G_D_7_P_0" stroke="#ffffff" stroke-linecap="round" stroke-linejoin="round" fill="none" stroke-width="30" stroke-opacity="1" d=" M171 875 C171,875 912,875 912,875 "/></g></g><g id="time_group"/></svg>