<svg xmlns="http://www.w3.org/2000/svg" xmlns:xlink="http://www.w3.org/1999/xlink" preserveAspectRatio="xMidYMid meet" width="1200" height="1200" viewBox="0 0 1200 1200" style="width:100%;height:100%"><defs><animateMotion repeatCount="indefinite" dur="1.3333333s" begin="0s" xlink:href="#_R_G_L_1_G" fill="freeze" keyTimes="0;0.25;0.5;0.7375;1" path="M640 528 C640,528 512,624 512,624 C512,624 512,624 512,624 C512,624 640,528 640,528 C640,528 640,528 640,528 " keyPoints="0;0.5;0.5;1;1" keySplines="0.333 0 0.667 1;0.333 0.333 0.667 0.667;0.333 0 0.667 1;0 0 0 0" calcMode="spline"/><animateTransform repeatCount="indefinite" dur="1.3333333s" begin="0s" xlink:href="#_R_G_L_1_G" fill="freeze" attributeName="transform" from="-540 -540" to="-540 -540" type="translate" additive="sum" keyTimes="0;1" values="-540 -540;-540 -540" keySplines="0 0 1 1" calcMode="spline"/><animate repeatCount="indefinite" dur="1.3333333s" begin="0s" xlink:href="#_R_G_L_0_G_D_0_P_0" fill="freeze" attributeName="d" attributeType="XML" from="M984 102 C984,102 1017.84,74.93 1017.84,74.93 " to="M984 102 C984,102 1017.84,74.93 1017.84,74.93 " keyTimes="0;0.0625;0.5125;0.7625;1" values="M984 102 C984,102 1017.84,74.93 1017.84,74.93 ;M984 102 C984,102 1017.84,74.93 1017.84,74.93 ;M626 410 C626,410 1017.84,74.93 1017.84,74.93 ;M984 102 C984,102 1017.84,74.93 1017.84,74.93 ;M984 102 C984,102 1017.84,74.93 1017.84,74.93 " keySplines="0.333 0 0.667 1;0.333 0 0.667 1;0.333 0 0.667 1;0 0 0 0" calcMode="spline"/><animate repeatCount="indefinite" dur="1.3333333s" begin="0s" xlink:href="#_R_G_L_0_G_D_1_P_0" fill="freeze" attributeName="d" attributeType="XML" from="M974 196 C974,196 992.55,178.71 992.55,178.71 " to="M974 196 C974,196 992.55,178.71 992.55,178.71 " keyTimes="0;0.0625;0.5125;0.7625;1" values="M974 196 C974,196 992.55,178.71 992.55,178.71 ;M974 196 C974,196 992.55,178.71 992.55,178.71 ;M716 418 C716,418 992.55,178.71 992.55,178.71 ;M974 196 C974,196 992.55,178.71 992.55,178.71 ;M974 196 C974,196 992.55,178.71 992.55,178.71 " keySplines="0.333 0 0.667 1;0.333 0 0.667 1;0.333 0 0.667 1;0 0 0 0" calcMode="spline"/><animate repeatCount="indefinite" dur="1.3333333s" begin="0s" xlink:href="#_R_G_L_0_G_D_2_P_0" fill="freeze" attributeName="d" attributeType="XML" from="M850 126 C850,126 861.34,117.88 861.34,117.88 " to="M850 126 C850,126 861.34,117.88 861.34,117.88 " keyTimes="0;0.0625;0.5125;0.7625;1" values="M850 126 C850,126 861.34,117.88 861.34,117.88 ;M850 126 C850,126 861.34,117.88 861.34,117.88 ;M620 314 C620,314 861.34,117.88 861.34,117.88 ;M850 126 C850,126 861.34,117.88 861.34,117.88 ;M850 126 C850,126 861.34,117.88 861.34,117.88 " keySplines="0.333 0 0.667 1;0.333 0 0.667 1;0.333 0 0.667 1;0 0 0 0" calcMode="spline"/><animate repeatCount="indefinite" dur="1.3333333s" begin="0s" xlink:href="#_R_G_L_0_G_M" fill="freeze" attributeName="opacity" from="0" to="0" keyTimes="0;0.0625;0.0625013;0.7875;0.7875;1" values="0;0;1;1;0;0" keySplines="0 0 0 0;0 0 0 0;0 0 0 0;0 0 0 0;0 0 0 0" calcMode="spline"/><animate attributeType="XML" attributeName="opacity" dur="1s" from="0" to="1" xlink:href="#time_group"/></defs><g id="_R_G"><g id="_R_G_L_2_G" transform=" translate(600, 600) scale(1.20741, 1.23704) translate(-540, -540)"><rect id="_R_G_L_2_G_S" fill="#ffffff" width="1080" height="1080"/></g><g id="_R_G_L_1_G"><path id="_R_G_L_1_G_D_0_P_0" stroke="#000000" stroke-linecap="round" stroke-linejoin="round" fill="none" stroke-width="25" stroke-opacity="1" d=" M192.62 579.98 C192.62,579.98 395.93,350.23 395.93,350.23 C395.93,350.23 367.08,332.61 367.08,332.61 C367.08,332.61 213.91,484.84 213.91,484.84 C213.91,484.84 192.62,579.98 192.62,579.98z "/><path id="_R_G_L_1_G_D_1_P_0" stroke="#000000" stroke-linecap="round" stroke-linejoin="round" fill="none" stroke-width="25" stroke-opacity="1" d=" M58 938 C58,938 992.11,630.1 992.11,630.1 C992.11,630.1 1048.43,495.41 1048.43,495.41 "/><path id="_R_G_L_1_G_D_2_P_0" stroke="#000000" stroke-linecap="round" stroke-linejoin="round" fill="none" stroke-width="25" stroke-opacity="1" d=" M1048.43 495.41 C1048.43,495.41 649.38,421.41 649.38,421.41 C649.38,421.41 1048.43,495.41 1048.43,495.41z "/><path id="_R_G_L_1_G_D_3_P_0" stroke="#000000" stroke-linecap="round" stroke-linejoin="round" fill="none" stroke-width="25" stroke-opacity="1" d=" M992.11 630.1 C992.11,630.1 913.12,594.08 913.12,594.08 C913.12,594.08 604.04,700.5 604.04,700.5 C604.04,700.5 525.05,784.05 525.05,784.05 C525.05,784.05 266.11,755.47 266.11,755.47 C266.11,755.47 192.62,579.98 192.62,579.98 "/><path id="_R_G_L_1_G_D_4_P_0" stroke="#000000" stroke-linecap="round" stroke-linejoin="round" fill="none" stroke-width="25" stroke-opacity="1" d=" M395.93 350.23 C395.93,350.23 533.99,288.21 533.99,288.21 C533.99,288.21 649.38,421.41 649.38,421.41 C649.38,421.41 58,938 58,938 C58,938 236.58,684.99 236.58,684.99 "/></g><g id="_R_G_L_0_G_M"><g id="_R_G_L_0_G" transform=" translate(600, 600) translate(-540, -540)"><path id="_R_G_L_0_G_D_0_P_0" stroke="#000000" stroke-linecap="round" stroke-linejoin="round" fill="none" stroke-width="25" stroke-opacity="1" d=" M984 102 C984,102 1017.84,74.93 1017.84,74.93 "/><path id="_R_G_L_0_G_D_1_P_0" stroke="#000000" stroke-linecap="round" stroke-linejoin="round" fill="none" stroke-width="25" stroke-opacity="1" d=" M974 196 C974,196 992.55,178.71 992.55,178.71 "/><path id="_R_G_L_0_G_D_2_P_0" stroke="#000000" stroke-linecap="round" stroke-linejoin="round" fill="none" stroke-width="25" stroke-opacity="1" d=" M850 126 C850,126 861.34,117.88 861.34,117.88 "/></g></g></g><g id="time_group"/></svg>