<svg xmlns="http://www.w3.org/2000/svg" xmlns:xlink="http://www.w3.org/1999/xlink" preserveAspectRatio="xMidYMid meet" width="2000" height="2000" viewBox="0 0 2000 2000" style="width:100%;height:100%"><defs><animateTransform repeatCount="indefinite" dur="1.0166667s" begin="0s" xlink:href="#_R_G_L_4_G_D_0_P_0_G_0_T_0" fill="freeze" attributeName="transform" from="0.63059 0.63059" to="-0.81273 -0.81273" type="scale" additive="sum" keyTimes="0;0.3770492;0.4918033;1" values="0.63059 0.63059;0.63059 0.63059;7.1643 7.1643;-0.81273 -0.81273" keySplines="0.333 0 0.667 1;0.333 0 0.667 1;0.333 0 0.667 1" calcMode="spline"/><animate repeatCount="indefinite" dur="1.0166667s" begin="0s" xlink:href="#_R_G_L_4_G_M" fill="freeze" attributeName="opacity" from="0" to="1" keyTimes="0;0.2131148;0.2131164;1" values="0;0;1;1" keySplines="0 0 0 0;0 0 0 0;0 0 0 0" calcMode="spline"/><animateTransform repeatCount="indefinite" dur="1.0166667s" begin="0s" xlink:href="#_R_G_L_3_G_D_0_P_0_G_0_T_0" fill="freeze" attributeName="transform" from="0.63059 0.63059" to="-0.18375 -0.18375" type="scale" additive="sum" keyTimes="0;0.3770492;0.4754098;0.9344262;1" values="0.63059 0.63059;0.63059 0.63059;8.31812 8.31812;-0.18375 -0.18375;-0.18375 -0.18375" keySplines="0.333 0 0.667 1;0.333 0 0.667 1;0.333 0 0.667 1;0 0 0 0" calcMode="spline"/><animate repeatCount="indefinite" dur="1.0166667s" begin="0s" xlink:href="#_R_G_L_3_G_M" fill="freeze" attributeName="opacity" from="0" to="1" keyTimes="0;0.2131148;0.2131164;1" values="0;0;1;1" keySplines="0 0 0 0;0 0 0 0;0 0 0 0" calcMode="spline"/><animateTransform repeatCount="indefinite" dur="1.0166667s" begin="0s" xlink:href="#_R_G_L_2_G" fill="freeze" attributeName="transform" from="0.07389 0.07389" to="-0.06474 0.023790000000000002" type="scale" additive="sum" keyTimes="0;0.2295082;0.3114754;0.5245902;0.8360656;1" values="0.07389 0.07389;0.07389 0.07389;0.30601 0.30601;0.9217700000000001 0.9217700000000001;-0.06474 0.023790000000000002;-0.06474 0.023790000000000002" keySplines="0.333 0 0.667 1;0.333 0 0.667 1;0.333 0 0.667 1;0.333 0 0.667 1;0 0 0 0" calcMode="spline"/><animateTransform repeatCount="indefinite" dur="1.0166667s" begin="0s" xlink:href="#_R_G_L_2_G" fill="freeze" attributeName="transform" from="-540 -540" to="-540 -540" type="translate" additive="sum" keyTimes="0;1" values="-540 -540;-540 -540" keySplines="0 0 1 1" calcMode="spline"/><animate repeatCount="indefinite" dur="1.0166667s" begin="0s" xlink:href="#_R_G_L_2_G_M" fill="freeze" attributeName="opacity" from="0" to="1" keyTimes="0;0.2131148;0.2131164;1" values="0;0;1;1" keySplines="0 0 0 0;0 0 0 0;0 0 0 0" calcMode="spline"/><animateTransform repeatCount="indefinite" dur="1.0166667s" begin="0s" xlink:href="#_R_G_L_1_G" fill="freeze" attributeName="transform" from="-0.025310000000000003 -0.025310000000000003" to="0.02537 0.02537" type="scale" additive="sum" keyTimes="0;0.1803279;0.5901639;0.9016393;1" values="-0.025310000000000003 -0.025310000000000003;-0.025310000000000003 -0.025310000000000003;0.70852 0.70852;0.02537 0.02537;0.02537 0.02537" keySplines="0.333 0 0.667 1;0.333 0 0.667 1;0.333 0 0.667 1;0 0 0 0" calcMode="spline"/><animateTransform repeatCount="indefinite" dur="1.0166667s" begin="0s" xlink:href="#_R_G_L_1_G" fill="freeze" attributeName="transform" from="-540 -540" to="-540 -540" type="translate" additive="sum" keyTimes="0;1" values="-540 -540;-540 -540" keySplines="0 0 1 1" calcMode="spline"/><animate repeatCount="indefinite" dur="1.0166667s" begin="0s" xlink:href="#_R_G_L_1_G_M" fill="freeze" attributeName="opacity" from="0" to="1" keyTimes="0;0.1803279;0.1803295;1" values="0;0;1;1" keySplines="0 0 0 0;0 0 0 0;0 0 0 0" calcMode="spline"/><animateTransform repeatCount="indefinite" dur="1.0166667s" begin="0s" xlink:href="#_R_G_L_0_G" fill="freeze" attributeName="transform" from="1.5732499999999998 1.5732499999999998" to="1.4752 1.56213" type="scale" additive="sum" keyTimes="0;0.0327869;0.2295082;0.4098361;0.7213115;1" values="1.5732499999999998 1.5732499999999998;1.5732499999999998 1.5732499999999998;1.22573 1.29796;1.6281200000000002 1.7240700000000002;1.4752 1.56213;1.4752 1.56213" keySplines="0.167 0.167 0.833 0.833;0.167 0.167 0.833 0.833;0.167 0.167 0.833 0.833;0.167 0.167 0.833 0.833;0 0 0 0" calcMode="spline"/><animateTransform repeatCount="indefinite" dur="1.0166667s" begin="0s" xlink:href="#_R_G_L_0_G" fill="freeze" attributeName="transform" from="-540 -540" to="-540 -540" type="translate" additive="sum" keyTimes="0;1" values="-540 -540;-540 -540" keySplines="0 0 1 1" calcMode="spline"/><animate attributeType="XML" attributeName="opacity" dur="1s" from="0" to="1" xlink:href="#time_group"/></defs><g id="_R_G"><g id="_R_G_L_4_G_M"><g id="_R_G_L_4_G" transform=" translate(336, 1456) scale(0.042510000000000006, 0.04194) translate(-540, -540)"><g id="_R_G_L_4_G_D_0_P_0_G_0_T_0" transform=" translate(6239.744, -1429.009)"><path id="_R_G_L_4_G_D_0_P_0" stroke="#000000" stroke-linecap="round" stroke-linejoin="round" fill="none" stroke-width="30" stroke-opacity="1" d=" M19.9 -482.09 C19.9,-482.09 82.18,-178.95 82.18,-178.95 C92.64,-141.51 120.57,-111.46 157.14,-98.28 C157.14,-98.28 424.82,-16.47 424.82,-16.47 C442.24,-11.15 441.77,13.67 424.16,18.32 C424.16,18.32 182.64,82.18 182.64,82.18 C142.16,97.57 110.85,130.49 97.52,171.69 C97.52,171.69 22.78,476.7 22.78,476.7 C17.28,499.16 -14.83,498.63 -19.58,476 C-19.58,476 -82.87,175.13 -82.87,175.13 C-91.06,144.42 -113.38,119.44 -142.99,107.86 C-142.99,107.86 -422.13,20.06 -422.13,20.06 C-442.24,13.73 -442.1,-14.76 -421.94,-20.9 C-421.94,-20.9 -150.97,-103.3 -150.97,-103.3 C-119.89,-115.13 -96.28,-141.01 -87.35,-173.04 C-87.35,-173.04 -11.14,-482.69 -11.14,-482.69 C-7.08,-499.15 16.49,-498.7 19.9,-482.09z "/></g><path id="_R_G_L_4_G_D_1_P_0" stroke="#000000" stroke-linecap="round" stroke-linejoin="round" fill="none" stroke-width="30" stroke-opacity="1" d=" M552.3 236.77 C552.3,236.77 591.58,427.93 591.58,427.93 C598.17,451.53 615.79,470.48 638.84,478.79 C638.84,478.79 807.64,530.38 807.64,530.38 C818.63,533.74 818.33,549.39 807.23,552.32 C807.23,552.32 654.92,592.59 654.92,592.59 C629.4,602.29 609.66,623.05 601.25,649.03 C601.25,649.03 554.12,841.37 554.12,841.37 C550.65,855.53 530.41,855.2 527.4,840.93 C527.4,840.93 487.5,651.2 487.5,651.2 C482.33,631.84 468.26,616.09 449.59,608.78 C449.59,608.78 273.56,553.42 273.56,553.42 C260.88,549.43 260.97,531.46 273.68,527.59 C273.68,527.59 444.56,475.63 444.56,475.63 C464.15,468.17 479.04,451.85 484.67,431.65 C484.67,431.65 532.73,236.39 532.73,236.39 C535.29,226.01 550.15,226.29 552.3,236.77z "/><path id="_R_G_L_4_G_D_2_P_0" stroke="#000000" stroke-linecap="round" stroke-linejoin="round" fill="none" stroke-width="30" stroke-opacity="1" d=" M552.3 236.77 C552.3,236.77 591.58,427.93 591.58,427.93 C598.17,451.53 615.79,470.48 638.84,478.79 C638.84,478.79 807.64,530.38 807.64,530.38 C818.63,533.74 818.33,549.39 807.23,552.32 C807.23,552.32 654.92,592.59 654.92,592.59 C629.4,602.29 609.66,623.05 601.25,649.03 C601.25,649.03 554.12,841.37 554.12,841.37 C550.65,855.53 530.41,855.2 527.4,840.93 C527.4,840.93 487.5,651.2 487.5,651.2 C482.33,631.84 468.26,616.09 449.59,608.78 C449.59,608.78 273.56,553.42 273.56,553.42 C260.88,549.43 260.97,531.46 273.68,527.59 C273.68,527.59 444.56,475.63 444.56,475.63 C464.15,468.17 479.04,451.85 484.67,431.65 C484.67,431.65 532.73,236.39 532.73,236.39 C535.29,226.01 550.15,226.29 552.3,236.77z "/></g></g><g id="_R_G_L_3_G_M"><g id="_R_G_L_3_G" transform=" translate(1536, 520) scale(0.042510000000000006, 0.04194) translate(-540, -540)"><g id="_R_G_L_3_G_D_0_P_0_G_0_T_0" transform=" translate(539.755, 540.768)"><path id="_R_G_L_3_G_D_0_P_0" stroke="#000000" stroke-linecap="round" stroke-linejoin="round" fill="none" stroke-width="30" stroke-opacity="1" d=" M19.9 -482.09 C19.9,-482.09 82.18,-178.95 82.18,-178.95 C92.64,-141.51 120.57,-111.46 157.14,-98.28 C157.14,-98.28 424.82,-16.47 424.82,-16.47 C442.24,-11.15 441.77,13.67 424.16,18.32 C424.16,18.32 182.64,82.18 182.64,82.18 C142.16,97.57 110.85,130.49 97.52,171.69 C97.52,171.69 22.78,476.7 22.78,476.7 C17.28,499.16 -14.83,498.63 -19.58,476 C-19.58,476 -82.87,175.13 -82.87,175.13 C-91.06,144.42 -113.38,119.44 -142.99,107.86 C-142.99,107.86 -422.13,20.06 -422.13,20.06 C-442.24,13.73 -442.1,-14.76 -421.94,-20.9 C-421.94,-20.9 -150.97,-103.3 -150.97,-103.3 C-119.89,-115.13 -96.28,-141.01 -87.35,-173.04 C-87.35,-173.04 -11.14,-482.69 -11.14,-482.69 C-7.08,-499.15 16.49,-498.7 19.9,-482.09z "/></g><path id="_R_G_L_3_G_D_1_P_0" stroke="#000000" stroke-linecap="round" stroke-linejoin="round" fill="none" stroke-width="30" stroke-opacity="1" d=" M552.3 236.77 C552.3,236.77 591.58,427.93 591.58,427.93 C598.17,451.53 615.79,470.48 638.84,478.79 C638.84,478.79 807.64,530.38 807.64,530.38 C818.63,533.74 818.33,549.39 807.23,552.32 C807.23,552.32 654.92,592.59 654.92,592.59 C629.4,602.29 609.66,623.05 601.25,649.03 C601.25,649.03 554.12,841.37 554.12,841.37 C550.65,855.53 530.41,855.2 527.4,840.93 C527.4,840.93 487.5,651.2 487.5,651.2 C482.33,631.84 468.26,616.09 449.59,608.78 C449.59,608.78 273.56,553.42 273.56,553.42 C260.88,549.43 260.97,531.46 273.68,527.59 C273.68,527.59 444.56,475.63 444.56,475.63 C464.15,468.17 479.04,451.85 484.67,431.65 C484.67,431.65 532.73,236.39 532.73,236.39 C535.29,226.01 550.15,226.29 552.3,236.77z "/><path id="_R_G_L_3_G_D_2_P_0" stroke="#000000" stroke-linecap="round" stroke-linejoin="round" fill="none" stroke-width="30" stroke-opacity="1" d=" M552.3 236.77 C552.3,236.77 591.58,427.93 591.58,427.93 C598.17,451.53 615.79,470.48 638.84,478.79 C638.84,478.79 807.64,530.38 807.64,530.38 C818.63,533.74 818.33,549.39 807.23,552.32 C807.23,552.32 654.92,592.59 654.92,592.59 C629.4,602.29 609.66,623.05 601.25,649.03 C601.25,649.03 554.12,841.37 554.12,841.37 C550.65,855.53 530.41,855.2 527.4,840.93 C527.4,840.93 487.5,651.2 487.5,651.2 C482.33,631.84 468.26,616.09 449.59,608.78 C449.59,608.78 273.56,553.42 273.56,553.42 C260.88,549.43 260.97,531.46 273.68,527.59 C273.68,527.59 444.56,475.63 444.56,475.63 C464.15,468.17 479.04,451.85 484.67,431.65 C484.67,431.65 532.73,236.39 532.73,236.39 C535.29,226.01 550.15,226.29 552.3,236.77z "/></g></g><g id="_R_G_L_2_G_M"><g id="_R_G_L_2_G" transform=" translate(440, 464)"><path id="_R_G_L_2_G_D_0_P_0" stroke="#000000" stroke-linecap="round" stroke-linejoin="round" fill="none" stroke-width="30" stroke-opacity="1" d=" M552.3 236.77 C552.3,236.77 591.58,427.93 591.58,427.93 C598.17,451.53 615.79,470.48 638.84,478.79 C638.84,478.79 807.64,530.38 807.64,530.38 C818.63,533.74 818.33,549.39 807.23,552.32 C807.23,552.32 654.92,592.59 654.92,592.59 C629.4,602.29 609.66,623.05 601.25,649.03 C601.25,649.03 554.12,841.37 554.12,841.37 C550.65,855.53 530.41,855.2 527.4,840.93 C527.4,840.93 487.5,651.2 487.5,651.2 C482.33,631.84 468.26,616.09 449.59,608.78 C449.59,608.78 273.56,553.42 273.56,553.42 C260.88,549.43 260.97,531.46 273.68,527.59 C273.68,527.59 444.56,475.63 444.56,475.63 C464.15,468.17 479.04,451.85 484.67,431.65 C484.67,431.65 532.73,236.39 532.73,236.39 C535.29,226.01 550.15,226.29 552.3,236.77z "/><path id="_R_G_L_2_G_D_1_P_0" stroke="#000000" stroke-linecap="round" stroke-linejoin="round" fill="none" stroke-width="30" stroke-opacity="1" d=" M552.3 236.77 C552.3,236.77 591.58,427.93 591.58,427.93 C598.17,451.53 615.79,470.48 638.84,478.79 C638.84,478.79 807.64,530.38 807.64,530.38 C818.63,533.74 818.33,549.39 807.23,552.32 C807.23,552.32 654.92,592.59 654.92,592.59 C629.4,602.29 609.66,623.05 601.25,649.03 C601.25,649.03 554.12,841.37 554.12,841.37 C550.65,855.53 530.41,855.2 527.4,840.93 C527.4,840.93 487.5,651.2 487.5,651.2 C482.33,631.84 468.26,616.09 449.59,608.78 C449.59,608.78 273.56,553.42 273.56,553.42 C260.88,549.43 260.97,531.46 273.68,527.59 C273.68,527.59 444.56,475.63 444.56,475.63 C464.15,468.17 479.04,451.85 484.67,431.65 C484.67,431.65 532.73,236.39 532.73,236.39 C535.29,226.01 550.15,226.29 552.3,236.77z "/><path id="_R_G_L_2_G_D_2_P_0" stroke="#000000" stroke-linecap="round" stroke-linejoin="round" fill="none" stroke-width="30" stroke-opacity="1" d=" M552.3 236.77 C552.3,236.77 591.58,427.93 591.58,427.93 C598.17,451.53 615.79,470.48 638.84,478.79 C638.84,478.79 807.64,530.38 807.64,530.38 C818.63,533.74 818.33,549.39 807.23,552.32 C807.23,552.32 654.92,592.59 654.92,592.59 C629.4,602.29 609.66,623.05 601.25,649.03 C601.25,649.03 554.12,841.37 554.12,841.37 C550.65,855.53 530.41,855.2 527.4,840.93 C527.4,840.93 487.5,651.2 487.5,651.2 C482.33,631.84 468.26,616.09 449.59,608.78 C449.59,608.78 273.56,553.42 273.56,553.42 C260.88,549.43 260.97,531.46 273.68,527.59 C273.68,527.59 444.56,475.63 444.56,475.63 C464.15,468.17 479.04,451.85 484.67,431.65 C484.67,431.65 532.73,236.39 532.73,236.39 C535.29,226.01 550.15,226.29 552.3,236.77z "/></g></g><g id="_R_G_L_1_G_M"><g id="_R_G_L_1_G" transform=" translate(1576, 1504)"><path id="_R_G_L_1_G_D_0_P_0" stroke="#000000" stroke-linecap="round" stroke-linejoin="round" fill="none" stroke-width="30" stroke-opacity="1" d=" M559.65 58.68 C559.65,58.68 621.93,361.82 621.93,361.82 C632.4,399.25 660.33,429.31 696.89,442.49 C696.89,442.49 964.58,524.3 964.58,524.3 C981.99,529.62 981.52,554.43 963.92,559.09 C963.92,559.09 722.39,622.95 722.39,622.95 C681.92,638.34 650.61,671.26 637.27,712.45 C637.27,712.45 562.54,1017.47 562.54,1017.47 C557.04,1039.92 524.93,1039.39 520.17,1016.77 C520.17,1016.77 456.89,715.9 456.89,715.9 C448.69,685.19 426.37,660.21 396.77,648.63 C396.77,648.63 117.62,560.83 117.62,560.83 C97.52,554.5 97.65,526 117.82,519.87 C117.82,519.87 388.79,437.47 388.79,437.47 C419.87,425.64 443.48,399.76 452.4,367.73 C452.4,367.73 528.62,58.08 528.62,58.08 C532.67,41.61 556.24,42.07 559.65,58.68z "/></g></g><g id="_R_G_L_0_G" transform=" translate(1032, 920)"><path id="_R_G_L_0_G_D_0_P_0" stroke="#000000" stroke-linecap="round" stroke-linejoin="round" fill="none" stroke-width="30" stroke-opacity="1" d=" M559.65 58.68 C559.65,58.68 621.93,361.82 621.93,361.82 C632.4,399.25 660.33,429.31 696.89,442.49 C696.89,442.49 964.58,524.3 964.58,524.3 C981.99,529.62 981.52,554.43 963.92,559.09 C963.92,559.09 722.39,622.95 722.39,622.95 C681.92,638.34 650.61,671.26 637.27,712.45 C637.27,712.45 562.54,1017.47 562.54,1017.47 C557.04,1039.92 524.93,1039.39 520.17,1016.77 C520.17,1016.77 456.89,715.9 456.89,715.9 C448.69,685.19 426.37,660.21 396.77,648.63 C396.77,648.63 117.62,560.83 117.62,560.83 C97.52,554.5 97.65,526 117.82,519.87 C117.82,519.87 388.79,437.47 388.79,437.47 C419.87,425.64 443.48,399.76 452.4,367.73 C452.4,367.73 528.62,58.08 528.62,58.08 C532.67,41.61 556.24,42.07 559.65,58.68z "/></g></g><g id="time_group"/></svg>