<?xml version="1.0" encoding="UTF-8"?>
<svg id="Layer_1" data-name="Layer 1" xmlns="http://www.w3.org/2000/svg" viewBox="0 0 665.23 1045">
  <defs>
    <style>
      .cls-1 {
        fill: #000;
        stroke-width: 0px;
      }
    </style>
  </defs>
  <path class="cls-1" d="M552.9,1006.61v-71.79h36.14v110.17H208.88v-110.24h36.59v71.85h307.43Z"/>
  <path class="cls-1" d="M206.36,740.24h-36.75v-114.23c-10.21,0-18.63-.48-26.98.14-8.24.61-10.64-2.86-10.23-10.53.46-8.73.11-17.51.11-27.18h36.17V244.36h37.68v495.88Z"/>
  <path class="cls-1" d="M284.34,243.85h37.38v151.73h76.26v38.34h-75.15v190.66h-38.48V243.85Z"/>
  <path class="cls-1" d="M592.44,512.1h-39.71v112.05h-39v-149.03h-76.76v111.18h-37.02v-150.86h113.61v37.09h75.24c1.16,14.08,2.23,27.01,3.29,39.94l.35-.38Z"/>
  <path class="cls-1" d="M628.57,819c-.18-64.98-.38-129.97-.54-194.95-.06-23.75,0-47.5,0-72.3h37.21v264.55c-12.5.78-24.78,1.55-37.07,2.32l.41.38Z"/>
  <path class="cls-1" d="M53.8,662.87H18.04v-111.2h113.03v35.94H53.46v75.6l.34-.34Z"/>
  <path class="cls-1" d="M218.98,0h39.73v111.27h-39.73V0Z"/>
  <path class="cls-1" d="M68.56,71.84c10.9-9.23,20.66-17.49,31.48-26.66,24.18,28.76,47.93,57.01,72.28,85.96-10.64,8.98-20.67,17.44-31.55,26.61-24.1-28.67-47.61-56.65-72.21-85.92Z"/>
  <path class="cls-1" d="M345.79,321.62c7.2-12.39,13.76-23.69,20.74-35.7,32.81,18.95,64.7,37.36,97.18,56.12-7.1,12.24-13.7,23.63-20.7,35.7-32.47-18.74-64.07-36.98-97.22-56.12Z"/>
  <path class="cls-1" d="M365.78,195.76c37.16-6.57,73.36-12.96,110.54-19.53,2.42,13.98,4.64,26.84,7.02,40.65-37.12,6.55-72.97,12.86-110.3,19.45-2.44-13.61-4.73-26.39-7.26-40.56Z"/>
  <path class="cls-1" d="M110.54,242.66c-37.21-6.53-73.17-12.85-110.54-19.41,2.41-13.62,4.68-26.45,7.19-40.61,36.98,6.49,72.9,12.8,110.27,19.36-2.29,13.45-4.42,25.97-6.92,40.66Z"/>
  <path class="cls-1" d="M44.8,383.37c-7.21-12.4-13.62-23.43-20.76-35.7,32.25-18.63,64.11-37.04,97.07-56.09,6.86,11.66,13.49,22.91,20.93,35.56-32.39,18.73-64.21,37.13-97.24,56.23Z"/>
  <path class="cls-1" d="M307.24,127.12c24.78-29.5,48.09-57.25,72.29-86.06,10.66,8.9,20.69,17.27,31.59,26.37-24.1,28.8-47.56,56.82-72.03,86.06-10.8-8.95-21.13-17.5-31.85-26.37Z"/>
  <path class="cls-1" d="M628.16,818.62v114.14h-36.56v-113.79c12.42,0,24.68,0,36.96.01.01.01-.4-.37-.4-.37Z"/>
  <path class="cls-1" d="M92.43,778.7v-73.96c12.69-.68,25.26-1.36,38.66-2.08v76.04h-38.66Z"/>
  <path class="cls-1" d="M170.06,854.56h36.63v78.26h-36.2v-78.67l-.43.41Z"/>
  <path class="cls-1" d="M170.5,854.15h-36.91v-73.78h36.47c0,24.76,0,49.48,0,74.2,0,0,.44-.41.44-.41Z"/>
  <path class="cls-1" d="M282.7,242.09h-73.7v-34.69c2.67-.33,5.98-1.06,9.3-1.08,18.5-.09,37.01.2,55.51-.1,6.83-.11,9.35,2.32,9,9.13-.43,8.38-.1,16.79-.1,26.75Z"/>
  <path class="cls-1" d="M53.46,663.21h37.04v41.08c-12.3-.81-23.84-1.57-36.7-2.41,0-13.45,0-26.23,0-39,0,0-.34.34-.34.34Z"/>
  <path class="cls-1" d="M592.08,512.48h34.77v36.84h-36.59c.73-12.71,1.44-24.95,2.16-37.2.02-.02-.34.36-.34.36Z"/>
</svg>